<svg viewBox="0 0 38 38" fill="none" xmlns="http://www.w3.org/2000/svg">
<g clip-path="url(#clip0_1_389)">
<path d="M9.90679 27.827C9.76131 27.7941 9.61441 27.7627 9.46893 27.7285C8.03557 27.3889 7.09425 26.1688 7.13133 24.6976C7.13561 24.5577 7.13133 24.4165 7.13133 24.2352H6.81186C5.91333 24.2352 5.0148 24.2367 4.11485 24.2352C3.29762 24.2338 2.71857 23.6645 2.71714 22.8439C2.71144 20.9332 2.71286 19.0211 2.71714 17.1103C2.71714 16.6737 2.88401 16.2969 3.18209 15.9802C3.32757 15.8246 3.4759 15.6691 3.63991 15.5321C4.84366 14.5303 5.48974 13.2147 5.80066 11.7135C5.89622 11.254 5.96182 10.7888 6.02315 10.3222C6.12156 9.58015 6.68635 9.06644 7.43655 9.06644C16.6472 9.06644 25.8578 9.06644 35.067 9.06644C35.9013 9.06644 36.4818 9.63866 36.4818 10.472C36.4846 14.596 36.4846 18.7228 36.4818 22.8468C36.4818 23.6659 35.8999 24.2324 35.0798 24.2338C34.0829 24.2352 33.0859 24.2338 32.0904 24.2338H31.8223C31.7838 24.6762 31.7938 25.0986 31.7025 25.4981C31.4229 26.7225 30.4602 27.573 29.2009 27.7656C29.141 27.7742 29.0854 27.8056 29.0269 27.827H28.6004C28.5334 27.8056 28.4678 27.7727 28.3993 27.7642C27.1385 27.5887 26.1131 26.6254 25.8934 25.374C25.8307 25.0115 25.8392 24.6377 25.8136 24.2566H13.0687C13.0687 24.3209 13.0645 24.3651 13.0687 24.4065C13.2556 25.9391 12.29 27.3432 10.7939 27.7128C10.6399 27.7499 10.4873 27.7884 10.3347 27.827H9.90679ZM35.9883 17.2445H35.5448C26.0132 17.2445 16.4817 17.2445 6.9502 17.2445C6.84324 17.2445 6.71915 17.2716 6.63501 17.2273C6.55228 17.1831 6.46528 17.0661 6.461 16.9762C6.45673 16.9063 6.56369 16.8078 6.64356 16.7607C6.70346 16.725 6.79902 16.7493 6.87889 16.7479C8.92554 16.7479 10.9722 16.7436 13.0203 16.7536C13.277 16.7536 13.3483 16.6822 13.3483 16.4254C13.3383 14.2464 13.3397 12.0688 13.3483 9.8898C13.3483 9.64008 13.2927 9.55446 13.026 9.55589C11.1662 9.56731 9.30634 9.5616 7.44653 9.5616C6.93879 9.5616 6.62787 9.80561 6.52946 10.3079C6.44389 10.7417 6.39682 11.1841 6.31268 11.6179C5.99891 13.2575 5.33999 14.7116 4.04211 15.8232C3.84672 15.9901 3.66701 16.1785 3.49301 16.3669C3.30047 16.5766 3.21062 16.8278 3.21204 17.1203C3.21775 19.0325 3.21204 20.9432 3.21632 22.8554C3.21632 23.399 3.55577 23.7344 4.09916 23.7358C5.07756 23.7372 6.05738 23.7301 7.03578 23.7415C7.23973 23.7444 7.32673 23.6673 7.4123 23.4946C7.9614 22.383 8.85993 21.7723 10.1036 21.768C11.3501 21.7637 12.2458 22.3816 12.8006 23.4861C12.8933 23.6716 12.986 23.7429 13.1971 23.7415C17.3717 23.7344 21.5449 23.7344 25.7194 23.7415C25.9277 23.7415 26.0247 23.6759 26.1188 23.4889C26.6836 22.3616 27.5992 21.748 28.8671 21.7694C30.1008 21.7894 30.9837 22.413 31.5185 23.516C31.6041 23.6916 31.6996 23.7415 31.8808 23.7401C32.9405 23.7329 33.9987 23.7372 35.0584 23.7372C35.6703 23.7372 35.9897 23.4147 35.9897 22.7968C35.9897 21.0545 35.9897 19.3122 35.9897 17.5684V17.243L35.9883 17.2445ZM17.3845 16.7479C18.4784 16.7479 19.5724 16.7407 20.6663 16.7536C20.9145 16.7564 20.9815 16.678 20.9801 16.4368C20.9715 14.2507 20.9729 12.0645 20.9801 9.87982C20.9801 9.64722 20.9301 9.55589 20.672 9.55732C18.4842 9.56731 16.2963 9.56731 14.1085 9.55732C13.8703 9.55732 13.8047 9.63152 13.8047 9.85984C13.8104 12.0545 13.8118 14.2492 13.8047 16.4439C13.8047 16.6951 13.8931 16.755 14.1299 16.7522C15.2152 16.7407 16.3006 16.7464 17.386 16.7464M25.0491 9.56303C23.9381 9.56303 22.8256 9.56873 21.7131 9.55875C21.4978 9.55732 21.4379 9.63152 21.4379 9.83415C21.4422 12.0474 21.4436 14.2592 21.4379 16.4725C21.4379 16.7022 21.5263 16.7522 21.7374 16.7507C23.9338 16.745 26.1316 16.7436 28.328 16.7507C28.5519 16.7507 28.6161 16.6794 28.6161 16.4611C28.6104 14.2578 28.609 12.0531 28.6161 9.84985C28.6161 9.60584 28.5291 9.55446 28.3052 9.55732C27.2198 9.56731 26.1345 9.5616 25.0491 9.5616M35.9883 16.7308V16.4568C35.9883 14.4661 35.9883 12.4755 35.9883 10.4834C35.9883 9.89266 35.6546 9.56303 35.0598 9.56303C33.1744 9.5616 31.2875 9.56731 29.402 9.55732C29.1467 9.55589 29.0682 9.62724 29.0682 9.88552C29.0768 12.0631 29.0768 14.2407 29.0682 16.4182C29.0682 16.668 29.1296 16.755 29.3948 16.7536C31.4943 16.7436 33.5937 16.7479 35.6945 16.7464C35.7815 16.7464 35.8671 16.7379 35.9897 16.7308M28.8144 22.2575C27.4209 22.2575 26.2871 23.3976 26.2971 24.7889C26.307 26.1717 27.4395 27.309 28.8072 27.3104C30.1864 27.3104 31.3402 26.146 31.3245 24.7704C31.3074 23.3719 30.195 22.2589 28.8144 22.2575ZM12.5995 24.7832C12.6009 23.3762 11.5084 22.2617 10.1221 22.2589C8.72586 22.256 7.59771 23.3819 7.59629 24.7775C7.59629 26.1588 8.72586 27.3075 10.0893 27.3118C11.4842 27.3161 12.5981 26.1945 12.5995 24.7832Z" fill="currentColor"/>
</g>
<defs>
<clipPath id="clip0_1_389">
<rect width="33.7689" height="18.7605" fill="white" transform="translate(2.71631 9.06644)"/>
</clipPath>
</defs>
</svg>
