<svg viewBox="0 0 25 25" fill="none" xmlns="http://www.w3.org/2000/svg">
<path d="M17.5 14.0488C17.7652 14.0488 18.0196 13.9435 18.2071 13.7559C18.3946 13.5684 18.5 13.314 18.5 13.0488C18.5 12.7836 18.3946 12.5293 18.2071 12.3417C18.0196 12.1542 17.7652 12.0488 17.5 12.0488C17.2348 12.0488 16.9804 12.1542 16.7929 12.3417C16.6054 12.5293 16.5 12.7836 16.5 13.0488C16.5 13.314 16.6054 13.5684 16.7929 13.7559C16.9804 13.9435 17.2348 14.0488 17.5 14.0488ZM17.5 18.0488C17.7652 18.0488 18.0196 17.9435 18.2071 17.7559C18.3946 17.5684 18.5 17.314 18.5 17.0488C18.5 16.7836 18.3946 16.5293 18.2071 16.3417C18.0196 16.1542 17.7652 16.0488 17.5 16.0488C17.2348 16.0488 16.9804 16.1542 16.7929 16.3417C16.6054 16.5293 16.5 16.7836 16.5 17.0488C16.5 17.314 16.6054 17.5684 16.7929 17.7559C16.9804 17.9435 17.2348 18.0488 17.5 18.0488ZM13.5 13.0488C13.5 13.314 13.3946 13.5684 13.2071 13.7559C13.0196 13.9435 12.7652 14.0488 12.5 14.0488C12.2348 14.0488 11.9804 13.9435 11.7929 13.7559C11.6054 13.5684 11.5 13.314 11.5 13.0488C11.5 12.7836 11.6054 12.5293 11.7929 12.3417C11.9804 12.1542 12.2348 12.0488 12.5 12.0488C12.7652 12.0488 13.0196 12.1542 13.2071 12.3417C13.3946 12.5293 13.5 12.7836 13.5 13.0488ZM13.5 17.0488C13.5 17.314 13.3946 17.5684 13.2071 17.7559C13.0196 17.9435 12.7652 18.0488 12.5 18.0488C12.2348 18.0488 11.9804 17.9435 11.7929 17.7559C11.6054 17.5684 11.5 17.314 11.5 17.0488C11.5 16.7836 11.6054 16.5293 11.7929 16.3417C11.9804 16.1542 12.2348 16.0488 12.5 16.0488C12.7652 16.0488 13.0196 16.1542 13.2071 16.3417C13.3946 16.5293 13.5 16.7836 13.5 17.0488ZM7.5 14.0488C7.76522 14.0488 8.01957 13.9435 8.20711 13.7559C8.39464 13.5684 8.5 13.314 8.5 13.0488C8.5 12.7836 8.39464 12.5293 8.20711 12.3417C8.01957 12.1542 7.76522 12.0488 7.5 12.0488C7.23478 12.0488 6.98043 12.1542 6.79289 12.3417C6.60536 12.5293 6.5 12.7836 6.5 13.0488C6.5 13.314 6.60536 13.5684 6.79289 13.7559C6.98043 13.9435 7.23478 14.0488 7.5 14.0488ZM7.5 18.0488C7.76522 18.0488 8.01957 17.9435 8.20711 17.7559C8.39464 17.5684 8.5 17.314 8.5 17.0488C8.5 16.7836 8.39464 16.5293 8.20711 16.3417C8.01957 16.1542 7.76522 16.0488 7.5 16.0488C7.23478 16.0488 6.98043 16.1542 6.79289 16.3417C6.60536 16.5293 6.5 16.7836 6.5 17.0488C6.5 17.314 6.60536 17.5684 6.79289 17.7559C6.98043 17.9435 7.23478 18.0488 7.5 18.0488Z" fill="black" fill-opacity="0.25"/>
<path fill-rule="evenodd" clip-rule="evenodd" d="M7.49998 1.79883C7.69889 1.79883 7.88965 1.87785 8.03031 2.0185C8.17096 2.15915 8.24998 2.34992 8.24998 2.54883V3.31183C8.91198 3.29883 9.64098 3.29883 10.443 3.29883H14.556C15.359 3.29883 16.088 3.29883 16.75 3.31183V2.54883C16.75 2.34992 16.829 2.15915 16.9696 2.0185C17.1103 1.87785 17.3011 1.79883 17.5 1.79883C17.6989 1.79883 17.8897 1.87785 18.0303 2.0185C18.171 2.15915 18.25 2.34992 18.25 2.54883V3.37583C18.51 3.39583 18.7563 3.42116 18.989 3.45183C20.161 3.60983 21.11 3.94183 21.859 4.68983C22.607 5.43883 22.939 6.38783 23.097 7.55983C23.25 8.69983 23.25 10.1548 23.25 11.9928V14.1048C23.25 15.9428 23.25 17.3988 23.097 18.5378C22.939 19.7098 22.607 20.6588 21.859 21.4078C21.11 22.1558 20.161 22.4878 18.989 22.6458C17.849 22.7988 16.394 22.7988 14.556 22.7988H10.445C8.60698 22.7988 7.15098 22.7988 6.01198 22.6458C4.83998 22.4878 3.89098 22.1558 3.14198 21.4078C2.39398 20.6588 2.06198 19.7098 1.90398 18.5378C1.75098 17.3978 1.75098 15.9428 1.75098 14.1048V11.9928C1.75098 10.1548 1.75098 8.69883 1.90398 7.55983C2.06198 6.38783 2.39398 5.43883 3.14198 4.68983C3.89098 3.94183 4.83998 3.60983 6.01198 3.45183C6.24531 3.42116 6.49164 3.39583 6.75098 3.37583V2.54883C6.75098 2.35009 6.82986 2.15947 6.97029 2.01885C7.11073 1.87823 7.30124 1.79909 7.49998 1.79883ZM6.20998 4.93883C5.20498 5.07383 4.62498 5.32783 4.20198 5.75083C3.77898 6.17383 3.52498 6.75383 3.38998 7.75883C3.36731 7.92883 3.34798 8.10849 3.33198 8.29783H21.668C21.652 8.10849 21.6326 7.92849 21.61 7.75783C21.475 6.75283 21.221 6.17283 20.798 5.74983C20.375 5.32683 19.795 5.07283 18.789 4.93783C17.762 4.79983 16.407 4.79783 14.5 4.79783H10.5C8.59298 4.79783 7.23898 4.80083 6.20998 4.93883ZM3.24998 12.0488C3.24998 11.1948 3.24998 10.4518 3.26298 9.79883H21.737C21.75 10.4518 21.75 11.1948 21.75 12.0488V14.0488C21.75 15.9558 21.748 17.3108 21.61 18.3388C21.475 19.3438 21.221 19.9238 20.798 20.3468C20.375 20.7698 19.795 21.0238 18.789 21.1588C17.762 21.2968 16.407 21.2988 14.5 21.2988H10.5C8.59298 21.2988 7.23898 21.2968 6.20998 21.1588C5.20498 21.0238 4.62498 20.7698 4.20198 20.3468C3.77898 19.9238 3.52498 19.3438 3.38998 18.3378C3.25198 17.3108 3.24998 15.9558 3.24998 14.0488V12.0488Z" fill="black" fill-opacity="0.25"/>
</svg>
