<svg width="48" height="49" viewBox="0 0 48 49" fill="none" xmlns="http://www.w3.org/2000/svg">
<g filter="url(#filter0_d_690_632)">
<circle cx="24" cy="20.75" r="20" fill="#3B4DA0"/>
</g>
<g clip-path="url(#clip0_690_632)">
<path d="M16.7434 24.8544C15.4989 23.8589 15.4989 23.1057 15.4989 19.9C15.4989 16.6942 15.4989 15.0909 16.7434 14.0954C17.9897 13.0991 19.9926 13.0991 24 13.0991C28.0074 13.0991 30.0111 13.0991 31.2557 14.0954C32.5003 15.0917 32.5011 16.6942 32.5011 19.9C32.5011 23.1057 32.5011 23.8589 31.2557 24.8544C30.012 25.8507 28.0074 25.8507 24 25.8507C21.8662 25.8507 20.7696 27.3282 18.8993 28.4011V25.6705C17.9693 25.5319 17.285 25.288 16.7434 24.8544Z" stroke="white" stroke-width="3" stroke-linecap="round" stroke-linejoin="round"/>
</g>
<defs>
<filter id="filter0_d_690_632" x="0" y="0.75" width="48" height="48" filterUnits="userSpaceOnUse" color-interpolation-filters="sRGB">
<feFlood flood-opacity="0" result="BackgroundImageFix"/>
<feColorMatrix in="SourceAlpha" type="matrix" values="0 0 0 0 0 0 0 0 0 0 0 0 0 0 0 0 0 0 127 0" result="hardAlpha"/>
<feOffset dy="4"/>
<feGaussianBlur stdDeviation="2"/>
<feComposite in2="hardAlpha" operator="out"/>
<feColorMatrix type="matrix" values="0 0 0 0 0 0 0 0 0 0 0 0 0 0 0 0 0 0 0.25 0"/>
<feBlend mode="normal" in2="BackgroundImageFix" result="effect1_dropShadow_690_632"/>
<feBlend mode="normal" in="SourceGraphic" in2="effect1_dropShadow_690_632" result="shape"/>
</filter>
<clipPath id="clip0_690_632">
<rect width="20.4027" height="20.4027" fill="white" transform="translate(13.7986 10.5487)"/>
</clipPath>
</defs>
</svg>
