<svg width="84" height="83" viewBox="0 0 84 83" fill="none" xmlns="http://www.w3.org/2000/svg">
<g filter="url(#filter0_d_581_455)">
<circle cx="42" cy="37.5697" r="37.25" fill="#3B4DA0"/>
</g>
<path d="M28.4846 45.214C26.1666 43.36 26.1666 41.9571 26.1666 35.9864C26.1666 30.0156 26.1666 27.0295 28.4846 25.1754C30.8058 23.3197 34.5361 23.3197 42 23.3197C49.4638 23.3197 53.1957 23.3197 55.5137 25.1754C57.8317 27.031 57.8333 30.0156 57.8333 35.9864C57.8333 41.9571 57.8333 43.36 55.5137 45.214C53.1973 47.0697 49.4638 47.0697 42 47.0697C38.0258 47.0697 35.9833 49.8215 32.5 51.8197V46.734C30.7678 46.476 29.4932 46.0215 28.4846 45.214Z" stroke="white" stroke-width="3" stroke-linecap="round" stroke-linejoin="round"/>
<defs>
<filter id="filter0_d_581_455" x="0.75" y="0.319702" width="82.5" height="82.5" filterUnits="userSpaceOnUse" color-interpolation-filters="sRGB">
<feFlood flood-opacity="0" result="BackgroundImageFix"/>
<feColorMatrix in="SourceAlpha" type="matrix" values="0 0 0 0 0 0 0 0 0 0 0 0 0 0 0 0 0 0 127 0" result="hardAlpha"/>
<feOffset dy="4"/>
<feGaussianBlur stdDeviation="2"/>
<feComposite in2="hardAlpha" operator="out"/>
<feColorMatrix type="matrix" values="0 0 0 0 0 0 0 0 0 0 0 0 0 0 0 0 0 0 0.25 0"/>
<feBlend mode="normal" in2="BackgroundImageFix" result="effect1_dropShadow_581_455"/>
<feBlend mode="normal" in="SourceGraphic" in2="effect1_dropShadow_581_455" result="shape"/>
</filter>
</defs>
</svg>
