<svg viewBox="0 0 24 25" fill="none" xmlns="http://www.w3.org/2000/svg">
<path d="M3 5.78394V4.78394C2.73478 4.78394 2.48043 4.88929 2.29289 5.07683C2.10536 5.26437 2 5.51872 2 5.78394H3ZM21 5.78394H22C22 5.51872 21.8946 5.26437 21.7071 5.07683C21.5196 4.88929 21.2652 4.78394 21 4.78394V5.78394ZM3 6.78394H21V4.78394H3V6.78394ZM20 5.78394V17.7839H22V5.78394H20ZM19 18.7839H5V20.7839H19V18.7839ZM4 17.7839V5.78394H2V17.7839H4ZM5 18.7839C4.73478 18.7839 4.48043 18.6786 4.29289 18.491C4.10536 18.3035 4 18.0492 4 17.7839H2C2 18.5796 2.31607 19.3426 2.87868 19.9053C3.44129 20.4679 4.20435 20.7839 5 20.7839V18.7839ZM20 17.7839C20 18.0492 19.8946 18.3035 19.7071 18.491C19.5196 18.6786 19.2652 18.7839 19 18.7839V20.7839C19.7956 20.7839 20.5587 20.4679 21.1213 19.9053C21.6839 19.3426 22 18.5796 22 17.7839H20Z" fill="currentColor"/>
<path d="M3 5.78394L12 14.7839L21 5.78394" stroke="currentColor" stroke-width="2" stroke-linecap="round" stroke-linejoin="round"/>
</svg>
