<svg width="22" height="18" viewBox="0 0 22 18" fill="none" xmlns="http://www.w3.org/2000/svg">
<path d="M17.9135 15.95V16.6511H4.66445V15.95H17.9135ZM2.37441 14.905C2.46064 15.1028 2.58318 15.2847 2.73867 15.4402C2.89406 15.5956 3.07624 15.7172 3.27383 15.8035V16.5486C2.88805 16.4339 2.53232 16.226 2.24258 15.9363C1.95276 15.6465 1.744 15.2909 1.6293 14.905H2.37441ZM20.9486 14.905C20.8339 15.2909 20.6252 15.6465 20.3354 15.9363C20.0456 16.226 19.6899 16.4339 19.3041 16.5486V15.8035C19.5017 15.7172 19.6839 15.5956 19.8393 15.4402C19.9948 15.2847 20.1173 15.1028 20.2035 14.905H20.9486ZM21.0502 3.4021V13.5144H20.349V3.4021H21.0502ZM2.2289 3.4021V13.5144H1.52773V3.4021H2.2289ZM18.9594 1.31128V2.01245H3.61855V1.31128H18.9594Z" fill="white" stroke="#4554A1" stroke-width="1.39048"/>
<path d="M2.92373 2.32532L11.5441 10.9457L20.1646 2.32532" stroke="#4554A1" stroke-width="2.69125" stroke-linecap="round" stroke-linejoin="round"/>
</svg>
