<svg viewBox="0 0 38 38" fill="none" xmlns="http://www.w3.org/2000/svg">
<g clip-path="url(#clip0_1_417)">
<path d="M9.62485 28.7025V23.387H2.93359L6.6982 17.3711H5.47252L8.62428 11.9431H7.08592L10.7255 5.70206H10.9506L14.6026 11.9431H13.0518L16.2035 17.3711H14.9904L18.7425 23.387H12.0512V28.7025H19.4679V11.4803" stroke="currentColor" stroke-width="0.625351" stroke-linecap="round" stroke-linejoin="round"/>
<path d="M30.0363 24.4501H23.9829L26.9721 19.9726H25.8965L28.673 15.5451H27.8351L30.1989 11.8055H30.374L32.7378 15.5451H31.8998L34.6764 19.9726H33.6008L36.59 24.4501H30.5366V28.3773" stroke="currentColor" stroke-width="0.625351" stroke-linecap="round" stroke-linejoin="round"/>
<path d="M21.3939 13.7187L19.4678 15.8198" stroke="currentColor" stroke-width="0.625351" stroke-linecap="round" stroke-linejoin="round"/>
<path d="M19.9559 19.6845C19.9559 19.6845 26.2594 19.5719 26.2594 12.0552C25.7091 5.50154 19.4681 5.70165 19.4681 5.70165C19.4681 5.70165 15.6535 5.31393 12.9395 9.07854" stroke="currentColor" stroke-width="0.625351" stroke-linecap="round" stroke-linejoin="round"/>
<path d="M1.5578 32.2923C1.5578 32.2923 1.05752 28.7528 5.09728 28.7528H33.7383C33.7383 28.7528 36.5024 29.0905 36.5024 32.4549" stroke="currentColor" stroke-width="0.625351" stroke-linecap="round" stroke-linejoin="round"/>
</g>
<defs>
<clipPath id="clip0_1_417">
<rect width="35.6825" height="27.3904" fill="white" transform="translate(1.22021 5.37686)"/>
</clipPath>
</defs>
</svg>
