<svg  viewBox="0 0 46 45" fill="none" xmlns="http://www.w3.org/2000/svg">
<path fill-rule="evenodd" clip-rule="evenodd" d="M6.125 10.3125C6.125 10.0639 6.22377 9.8254 6.39959 9.64959C6.5754 9.47377 6.81386 9.375 7.0625 9.375H38.9375C39.1861 9.375 39.4246 9.47377 39.6004 9.64959C39.7762 9.8254 39.875 10.0639 39.875 10.3125C39.875 10.5611 39.7762 10.7996 39.6004 10.9754C39.4246 11.1512 39.1861 11.25 38.9375 11.25H7.0625C6.81386 11.25 6.5754 11.1512 6.39959 10.9754C6.22377 10.7996 6.125 10.5611 6.125 10.3125ZM6.125 22.5C6.125 22.2514 6.22377 22.0129 6.39959 21.8371C6.5754 21.6613 6.81386 21.5625 7.0625 21.5625H38.9375C39.1861 21.5625 39.4246 21.6613 39.6004 21.8371C39.7762 22.0129 39.875 22.2514 39.875 22.5C39.875 22.7486 39.7762 22.9871 39.6004 23.1629C39.4246 23.3387 39.1861 23.4375 38.9375 23.4375H7.0625C6.81386 23.4375 6.5754 23.3387 6.39959 23.1629C6.22377 22.9871 6.125 22.7486 6.125 22.5ZM6.125 34.6875C6.125 34.4389 6.22377 34.2004 6.39959 34.0246C6.5754 33.8488 6.81386 33.75 7.0625 33.75H38.9375C39.1861 33.75 39.4246 33.8488 39.6004 34.0246C39.7762 34.2004 39.875 34.4389 39.875 34.6875C39.875 34.9361 39.7762 35.1746 39.6004 35.3504C39.4246 35.5262 39.1861 35.625 38.9375 35.625H7.0625C6.81386 35.625 6.5754 35.5262 6.39959 35.3504C6.22377 35.1746 6.125 34.9361 6.125 34.6875Z" fill="#3B4DA0"/>
</svg>
