<svg width="24" height="24" viewBox="0 0 24 24" fill="none" xmlns="http://www.w3.org/2000/svg">
<path d="M17.2083 11.53C17.2083 11.1696 17.2083 10.9894 17.2625 10.829C17.4198 10.3623 17.8354 10.1821 18.2521 9.9925C18.7188 9.77896 18.9521 9.67271 19.1844 9.65396C19.4469 9.63313 19.7104 9.68938 19.9354 9.81542C20.2334 9.98209 20.4417 10.3008 20.6542 10.5592C21.6365 11.7529 22.1281 12.3498 22.3073 13.0071C22.4531 13.5383 22.4531 14.0946 22.3073 14.6248C22.0459 15.5852 21.2177 16.3894 20.6042 17.1352C20.2906 17.5154 20.1334 17.706 19.9354 17.8175C19.7066 17.9444 19.4452 18.0006 19.1844 17.979C18.9521 17.9602 18.7188 17.854 18.2511 17.6404C17.8344 17.4508 17.4198 17.2706 17.2625 16.804C17.2083 16.6435 17.2083 16.4633 17.2083 16.104V11.53ZM6.79168 11.53C6.79168 11.0758 6.77918 10.6685 6.41252 10.3498C6.27918 10.2342 6.1021 10.154 5.74897 9.9925C5.28127 9.78 5.04793 9.67271 4.81564 9.65396C4.12085 9.59771 3.74689 10.0727 3.34689 10.5602C2.36356 11.7529 1.87189 12.3498 1.69168 13.0081C1.54669 13.5376 1.54669 14.0963 1.69168 14.6258C1.95418 15.5852 2.78335 16.3904 3.39585 17.1352C3.78231 17.604 4.1521 18.0321 4.81564 17.979C5.04793 17.9602 5.28127 17.854 5.74897 17.6404C6.10314 17.48 6.27918 17.3988 6.41252 17.2831C6.77918 16.9644 6.79168 16.5571 6.79168 16.104V11.53Z" stroke="#3B4DA0" stroke-width="1.81395" stroke-linecap="round" stroke-linejoin="round"/>
<path d="M20.3333 10.1711V8.60856C20.3333 4.58148 16.6021 1.31689 12 1.31689C7.39793 1.31689 3.66668 4.58148 3.66668 8.60856V10.1711M20.3333 17.4627C20.3333 22.1502 16.1667 22.1502 12 22.1502" stroke="#3B4DA0" stroke-width="1.81395" stroke-linecap="round" stroke-linejoin="round"/>
</svg>
