<svg viewBox="0 0 25 25" fill="none" xmlns="http://www.w3.org/2000/svg">
<rect width="24" height="24" transform="translate(0.5 0.393555)" fill="none"/>
<path fill-rule="evenodd" clip-rule="evenodd" d="M16.772 10.6659C16.772 11.7268 16.3505 12.7442 15.6004 13.4943C14.8503 14.2445 13.8328 14.6659 12.772 14.6659C11.7111 14.6659 10.6937 14.2445 9.94355 13.4943C9.1934 12.7442 8.77197 11.7268 8.77197 10.6659C8.77197 9.60503 9.1934 8.58761 9.94355 7.83747C10.6937 7.08732 11.7111 6.66589 12.772 6.66589C13.8328 6.66589 14.8503 7.08732 15.6004 7.83747C16.3505 8.58761 16.772 9.60503 16.772 10.6659ZM14.772 10.6659C14.772 11.1963 14.5613 11.705 14.1862 12.0801C13.8111 12.4552 13.3024 12.6659 12.772 12.6659C12.2415 12.6659 11.7328 12.4552 11.3578 12.0801C10.9827 11.705 10.772 11.1963 10.772 10.6659C10.772 10.1355 10.9827 9.62675 11.3578 9.25168C11.7328 8.87661 12.2415 8.66589 12.772 8.66589C13.3024 8.66589 13.8111 8.87661 14.1862 9.25168C14.5613 9.62675 14.772 10.1355 14.772 10.6659Z" fill="currentColor" />
<path fill-rule="evenodd" clip-rule="evenodd" d="M6.294 16.9115C5.00484 15.6841 4.10861 14.1019 3.71864 12.3651C3.32867 10.6284 3.46248 8.81492 4.10315 7.15417C4.74381 5.49343 5.86256 4.05996 7.31792 3.03504C8.77328 2.01011 10.4999 1.43977 12.2794 1.39614C14.0589 1.3525 15.8114 1.83753 17.3152 2.7899C18.8191 3.74226 20.0067 5.11917 20.728 6.74652C21.4493 8.37387 21.6718 10.1786 21.3675 11.9324C21.0631 13.6862 20.2455 15.3104 19.018 16.5995L12.812 23.1175L6.294 16.9115ZM17.57 15.2205L12.743 20.2905L7.673 15.4635C6.67037 14.5089 5.97334 13.2783 5.67005 11.9275C5.36676 10.5767 5.47084 9.16628 5.96912 7.87462C6.4674 6.58296 7.3375 5.46805 8.46941 4.67089C9.60131 3.87373 10.9442 3.43011 12.3282 3.39613C13.7122 3.36215 15.0752 3.73933 16.2449 4.47998C17.4146 5.22063 18.3383 6.29149 18.8994 7.55714C19.4605 8.8228 19.6336 10.2264 19.397 11.5905C19.1604 12.9545 18.5246 14.2178 17.57 15.2205Z" fill="currentColor" />
</svg>
