<svg viewBox="0 0 28 29" fill="none" xmlns="http://www.w3.org/2000/svg">
<path d="M5.83333 25.4175C5.19167 25.4175 4.64256 25.1893 4.186 24.7327C3.72944 24.2762 3.50078 23.7267 3.5 23.0842V6.75087C3.5 6.10921 3.72867 5.5601 4.186 5.10354C4.64333 4.64699 5.19244 4.41832 5.83333 4.41754H12.8333C13.1639 4.41754 13.4412 4.52954 13.6652 4.75354C13.8892 4.97754 14.0008 5.25443 14 5.58421C13.9992 5.91399 13.8872 6.19126 13.664 6.41604C13.4408 6.64082 13.1639 6.75243 12.8333 6.75087H5.83333V23.0842H12.8333C13.1639 23.0842 13.4412 23.1962 13.6652 23.4202C13.8892 23.6442 14.0008 23.9211 14 24.2509C13.9992 24.5807 13.8872 24.8579 13.664 25.0827C13.4408 25.3075 13.1639 25.4191 12.8333 25.4175H5.83333ZM20.0375 16.0842H11.6667C11.3361 16.0842 11.0592 15.9722 10.836 15.7482C10.6128 15.5242 10.5008 15.2473 10.5 14.9175C10.4992 14.5878 10.6112 14.3109 10.836 14.0869C11.0608 13.8629 11.3377 13.7509 11.6667 13.7509H20.0375L17.85 11.5634C17.6361 11.3495 17.5292 11.087 17.5292 10.7759C17.5292 10.4648 17.6361 10.1925 17.85 9.95921C18.0639 9.72588 18.3361 9.60415 18.6667 9.59404C18.9972 9.58393 19.2792 9.69593 19.5125 9.93004L23.6833 14.1009C23.9167 14.3342 24.0333 14.6064 24.0333 14.9175C24.0333 15.2287 23.9167 15.5009 23.6833 15.7342L19.5125 19.905C19.2792 20.1384 19.0023 20.2504 18.6818 20.241C18.3614 20.2317 18.0841 20.11 17.85 19.8759C17.6361 19.6425 17.5342 19.3657 17.5443 19.0452C17.5544 18.7248 17.6661 18.4572 17.8792 18.2425L20.0375 16.0842Z" fill="#3B4DA0"/>
</svg>
