<svg viewBox="0 0 39 38" fill="none" xmlns="http://www.w3.org/2000/svg">
<g clip-path="url(#clip0_1_394)">
<path d="M16.2034 18.1673L9.44277 19.9115C8.62122 20.1655 7.7141 19.8268 7.25198 19.0986L3.45233 15.0683C2.61367 13.7813 3.55502 12.0879 5.11254 12.1049H5.7287C6.29351 12.1049 10.8462 14.137 11.6507 13.7305L13.5505 12.7484L19.695 9.56477L25.3089 6.65211C25.5485 6.53357 25.9421 6.38117 26.4043 6.22876C27.26 5.95781 28.3212 5.7038 28.8347 5.7546C30.1183 5.95781 31.0597 6.68598 31.6074 7.31254C32.0181 7.78669 33.0451 7.85443 33.627 8.07457C33.7126 8.10844 33.8153 8.14231 33.9009 8.19311C34.4828 8.48099 35.0476 9.02288 35.0476 10.0559C35.0476 12.8669 29.177 14.4248 29.177 14.4248L22.3821 16.44" stroke="currentColor" stroke-width="0.625351" stroke-linecap="round" stroke-linejoin="round"/>
<path d="M33.9349 8.17617C32.9251 8.71806 31.727 9.36156 30.7172 9.90345C29.0399 10.8348 26.8149 10.1575 26.1645 8.36245C25.9249 7.70202 25.9249 6.95692 26.4212 6.21182" stroke="currentColor" stroke-width="0.625351" stroke-linecap="round" stroke-linejoin="round"/>
<path d="M15.2106 23.8571L16.597 15.932C16.6654 15.5764 16.905 15.2716 17.2302 15.1192L21.8857 13.0363C22.827 12.6129 23.7855 13.5782 23.3405 14.5095L18.8733 23.8233C18.7535 24.0603 18.5652 24.2466 18.3256 24.3482L16.7681 25.0425C15.9637 25.3981 15.0566 24.7208 15.2106 23.8571Z" stroke="currentColor" stroke-width="0.625351" stroke-linecap="round" stroke-linejoin="round"/>
<path d="M19.7121 9.54785L13.5676 12.7315L8.82659 9.85266C8.0735 9.39544 8.14197 8.27779 8.9464 7.92218L10.5039 7.22788C10.7435 7.12628 11.0174 7.09241 11.2741 7.17708L19.7292 9.54785H19.7121Z" stroke="currentColor" stroke-width="0.625351" stroke-linecap="round" stroke-linejoin="round"/>
<path d="M34.9107 27.9044H4.61622C3.9829 27.9044 3.46948 28.4123 3.46948 29.0389V30.0211C3.46948 30.6477 3.9829 31.1557 4.61622 31.1557H34.9107C35.544 31.1557 36.0574 30.6477 36.0574 30.0211V29.0389C36.0574 28.4123 35.544 27.9044 34.9107 27.9044Z" stroke="currentColor" stroke-width="0.625351" stroke-linecap="round" stroke-linejoin="round"/>
</g>
<defs>
<clipPath id="clip0_1_394">
<rect width="33.7689" height="26.2647" fill="white" transform="translate(2.71631 5.31433)"/>
</clipPath>
</defs>
</svg>
