<svg viewBox="0 0 20 23" fill="none" xmlns="http://www.w3.org/2000/svg">
<path fill-rule="evenodd" clip-rule="evenodd" d="M14 12.5C15.4587 12.5 16.8576 13.0795 17.8891 14.1109C18.9205 15.1424 19.5 16.5413 19.5 18V19.5C19.5 19.8978 19.342 20.2794 19.0607 20.5607C18.7794 20.842 18.3978 21 18 21C17.6022 21 17.2206 20.842 16.9393 20.5607C16.658 20.2794 16.5 19.8978 16.5 19.5V18C16.5 17.337 16.2366 16.7011 15.7678 16.2322C15.2989 15.7634 14.663 15.5 14 15.5H6C5.33696 15.5 4.70107 15.7634 4.23223 16.2322C3.76339 16.7011 3.5 17.337 3.5 18V19.5C3.5 19.8978 3.34196 20.2794 3.06066 20.5607C2.77936 20.842 2.39782 21 2 21C1.60218 21 1.22064 20.842 0.93934 20.5607C0.658035 20.2794 0.5 19.8978 0.5 19.5V18C0.5 16.5413 1.07946 15.1424 2.11091 14.1109C3.14236 13.0795 4.54131 12.5 6 12.5H14ZM10 0.5C11.4587 0.5 12.8576 1.07946 13.8891 2.11091C14.9205 3.14236 15.5 4.54131 15.5 6C15.5 7.45869 14.9205 8.85764 13.8891 9.88909C12.8576 10.9205 11.4587 11.5 10 11.5C8.54131 11.5 7.14236 10.9205 6.11091 9.88909C5.07946 8.85764 4.5 7.45869 4.5 6C4.5 4.54131 5.07946 3.14236 6.11091 2.11091C7.14236 1.07946 8.54131 0.5 10 0.5ZM10 3.5C9.33696 3.5 8.70107 3.76339 8.23223 4.23223C7.76339 4.70107 7.5 5.33696 7.5 6C7.5 6.66304 7.76339 7.29893 8.23223 7.76777C8.70107 8.23661 9.33696 8.5 10 8.5C10.663 8.5 11.2989 8.23661 11.7678 7.76777C12.2366 7.29893 12.5 6.66304 12.5 6C12.5 5.33696 12.2366 4.70107 11.7678 4.23223C11.2989 3.76339 10.663 3.5 10 3.5Z" fill="currentColor"/>
</svg>
