<svg viewBox="0 0 38 38" fill="none" xmlns="http://www.w3.org/2000/svg">
<g clip-path="url(#clip0_1_435)">
<path d="M23.6821 25.7342C24.5721 24.1203 25.0792 22.264 25.0792 20.2896C25.0792 14.0538 20.0235 8.99811 13.7876 8.99811C7.55181 8.99811 2.49463 14.0538 2.49463 20.2896C2.49463 26.5255 7.55031 31.5811 13.7861 31.5811C16.148 31.5811 18.3408 30.8557 20.1536 29.6157M17.3386 28.2067C16.2542 28.6958 15.0516 28.9666 13.7876 28.9666C9.00419 28.9666 5.11072 25.0746 5.11072 20.2896C5.11072 15.5047 9.0027 11.6127 13.7876 11.6127C18.5726 11.6127 22.4646 15.5047 22.4646 20.2896C22.4646 22.0471 21.9396 23.6835 21.0376 25.0521" stroke="currentColor" stroke-width="0.299153" stroke-linecap="round" stroke-linejoin="round"/>
<path opacity="0.7" d="M29.4561 9.07736C29.821 9.30771 30.171 9.56199 30.5046 9.83422" stroke="white" stroke-width="0.435267" stroke-linecap="round" stroke-linejoin="round"/>
<path d="M13.9955 12.4653C13.11 14.0762 12.6074 15.925 12.6074 17.8919C12.6074 22.0875 14.8989 25.7522 18.2988 27.6996C19.1813 28.2052 20.1416 28.5956 21.1542 28.8469C22.0322 29.0698 22.9521 29.1849 23.8989 29.1849C30.1363 29.1849 35.1935 24.1278 35.1935 17.8934C35.1935 11.6591 30.1363 6.59891 23.9004 6.59891C21.4384 6.59891 19.1589 7.38867 17.3011 8.72588M20.33 9.98382C21.419 9.48872 22.629 9.215 23.9019 9.215C28.6854 9.215 32.5774 13.1055 32.5774 17.8904C32.5774 22.6754 28.6839 26.5659 23.9019 26.5659C23.6641 26.5659 23.4263 26.5569 23.1929 26.5359C22.2222 26.4597 21.2963 26.2203 20.4437 25.8464C17.3744 24.5077 15.2235 21.4459 15.2235 17.8889C15.2235 16.1075 15.765 14.4487 16.6894 13.0696" stroke="currentColor" stroke-width="0.299153" stroke-linecap="round" stroke-linejoin="round"/>
</g>
<defs>
<clipPath id="clip0_1_435">
<rect width="32.9995" height="25.2829" fill="white" transform="translate(2.34521 6.44934)"/>
</clipPath>
</defs>
</svg>
