<svg viewBox="0 0 16 17" fill="none" xmlns="http://www.w3.org/2000/svg">
<path d="M10.91 3.03394H13.91C13.6096 5.90501 12.2557 8.56285 10.11 10.4939C7.94747 12.4385 5.13823 13.5081 2.22999 13.4939H1.45999V10.6839L3.99999 9.80394L4.83999 11.2239L5.42999 12.2839L6.49999 11.6639C8.41579 10.5519 10.0484 9.01176 11.27 7.16394L12 6.01394L10.78 5.37394L9.77999 4.85394L10.87 3.03394M10.87 1.78394C10.6543 1.78555 10.4427 1.84248 10.2554 1.94929C10.068 2.05609 9.91124 2.20919 9.79999 2.39394L8.74999 4.21394C8.66093 4.3594 8.60283 4.52168 8.57934 4.69061C8.55584 4.85955 8.56745 5.03152 8.61344 5.19577C8.65943 5.36002 8.73881 5.51301 8.84662 5.64519C8.95443 5.77736 9.08834 5.88587 9.23999 5.96394L10.24 6.48394C9.12362 8.16967 7.6311 9.57319 5.87999 10.5839L4.99999 9.17394C4.89701 8.99645 4.75191 8.84705 4.5775 8.73892C4.4031 8.63079 4.20476 8.56726 3.99999 8.55394C3.86029 8.55323 3.72154 8.57691 3.58999 8.62394L0.999994 9.50394C0.764147 9.59725 0.562267 9.7601 0.421163 9.97086C0.280059 10.1816 0.206409 10.4303 0.209994 10.6839V13.5339C0.209994 13.8655 0.34169 14.1834 0.576111 14.4178C0.810531 14.6522 1.12847 14.7839 1.45999 14.7839H2.20999C5.41947 14.7848 8.51582 13.5984 10.903 11.4531C13.2901 9.30779 14.7993 6.35528 15.14 3.16394C15.1567 2.98951 15.1368 2.81352 15.0816 2.6472C15.0265 2.48089 14.9372 2.32791 14.8196 2.19805C14.7019 2.06818 14.5585 1.96427 14.3985 1.89297C14.2384 1.82166 14.0652 1.78453 13.89 1.78394H10.87Z" fill="currentColor"/>
</svg>
